<?xml version="1.0" encoding="utf-8"?>
<!-- Generator: Adobe Illustrator 17.0.2, SVG Export Plug-In . SVG Version: 6.00 Build 0)  -->
<!DOCTYPE svg PUBLIC "-//W3C//DTD SVG 1.1//EN" "http://www.w3.org/Graphics/SVG/1.1/DTD/svg11.dtd">
<svg version="1.1" id="Layer_1" xmlns="http://www.w3.org/2000/svg" xmlns:xlink="http://www.w3.org/1999/xlink" x="0px" y="0px"
	 width="247px" height="248px" viewBox="0 0 247 248" enable-background="new 0 0 247 248" xml:space="preserve">
<title>push-notifications</title>
<desc>Created with Sketch.</desc>
<g id="Page-1">
	<g id="push-notifications" transform="translate(0.000000, 1.000000)">
		<g id="Onboarding">
			<g id="_x30_.4---Allow-Push-Notifications">
				<g id="Group-7">
					
						<linearGradient id="Oval-2_2_" gradientUnits="userSpaceOnUse" x1="-74.7976" y1="322.2996" x2="-74.7976" y2="321.4049" gradientTransform="matrix(247 0 0 -247 18598.5 79608)">
						<stop  offset="0" style="stop-color:#192C3A"/>
						<stop  offset="1" style="stop-color:#192C3A"/>
					</linearGradient>
					<path id="Oval-2" fill="url(#Oval-2_2_)" fill-opacity="0" d="M123.5,247c68.207,0,123.5-55.293,123.5-123.5S191.707,0,123.5,0
						S0,55.293,0,123.5S55.293,247,123.5,247z"/>
					<g id="Phone" transform="translate(62.000000, 0.000000)">
						<path id="Combined-Shape" fill="#FFFFFF" fill-opacity="0.65" stroke="#FFFFFF" stroke-width="2" d="M8,0h106.169
							c4.418,0,8,3.582,8,8v204.465c0,4.418-3.582,8-8,8H8c-4.418,0-8-3.582-8-8V8C0,3.582,3.582,0,8,0z"/>
						<path id="Line" fill="#FFFFFF" stroke="#FFFFFF" stroke-width="2" stroke-linecap="square" d="M0.636,187h120.897"/>
						<path id="Line_1_" fill="#FFFFFF" stroke="#FFFFFF" stroke-width="2" stroke-linecap="square" d="M50.268,203h22.907"/>
					</g>
					
						<ellipse id="Oval-2_1_" opacity="0.9456" fill="#192C3A" fill-opacity="0.4191" stroke="#FFFFFF" stroke-width="2" enable-background="new    " cx="169" cy="57.488" rx="47" ry="44.488"/>
					<g id="Group-3" transform="translate(62.000000, 33.000000)">
						<path id="Line_2_" fill="none" stroke="#FFFFFF" stroke-width="3" stroke-linecap="square" d="M12.711,19.5h37.781"/>
						<path id="Line_3_" fill="none" stroke="#FFFFFF" stroke-width="3" stroke-linecap="square" d="M21.96,10.417h21.043"/>
						<g id="Rectangle-3">
							<g id="path-2-Clipped">
								<g id="path-2_1_">
								</g>
								<defs>
									<filter id="Adobe_OpacityMaskFilter" filterUnits="userSpaceOnUse" x="-1" y="-1" width="124" height="36">
										<feColorMatrix  type="matrix" values="1 0 0 0 0  0 1 0 0 0  0 0 1 0 0  0 0 0 1 0"/>
									</filter>
								</defs>
								<mask maskUnits="userSpaceOnUse" x="-1" y="-1" width="124" height="36" id="mask-3">
									<g filter="url(#Adobe_OpacityMaskFilter)">
										<rect id="path-2" fill="#FFFFFF" width="122" height="34"/>
									</g>
								</mask>
								<rect id="path-2_2_" mask="url(#mask-3)" fill="none" stroke="#FFFFFF" stroke-width="2" width="122" height="34"/>
							</g>
						</g>
					</g>
					<g id="android-notifications-none" transform="translate(144.642407, 28.000000)" opacity="0.9">
						<path id="Shape" fill="#FFFFFF" d="M24.522,9.582c0.981,0,3.313,0.592,3.313,0.592c6.316,1.381,10.762,6.933,10.762,13.201
							V38.5v1.747l1.291,1.238l1.079,1.034H7.8l1.079-1.034l1.291-1.238V38.5V23.375c0-6.268,4.446-11.82,10.762-13.201
							c0,0,2.5-0.592,3.313-0.592H24.522z M24.383,0c-2.439,0-4.303,1.787-4.303,4.125V6.05C11.904,7.838,5.737,14.988,5.737,23.375
							V38.5L0,44v2.75h48.767V44l-5.737-5.5V23.375c0-8.387-6.167-15.537-14.343-17.325V4.125C28.686,1.787,26.822,0,24.383,0
							L24.383,0L24.383,0z M30.12,49.5H18.646c0,3.025,2.581,5.5,5.737,5.5S30.12,52.525,30.12,49.5L30.12,49.5L30.12,49.5z"/>
					</g>
				</g>
			</g>
		</g>
	</g>
</g>
</svg>
