<?xml version="1.0" encoding="utf-8"?>
<!-- Generator: Adobe Illustrator 17.0.2, SVG Export Plug-In . SVG Version: 6.00 Build 0)  -->
<!DOCTYPE svg PUBLIC "-//W3C//DTD SVG 1.1//EN" "http://www.w3.org/Graphics/SVG/1.1/DTD/svg11.dtd">
<svg version="1.1"
	 id="svg46" xmlns:dc="http://purl.org/dc/elements/1.1/" xmlns:cc="http://creativecommons.org/ns#" xmlns:inkscape="http://www.inkscape.org/namespaces/inkscape" xmlns:rdf="http://www.w3.org/1999/02/22-rdf-syntax-ns#" xmlns:sodipodi="http://sodipodi.sourceforge.net/DTD/sodipodi-0.dtd" xmlns:svg="http://www.w3.org/2000/svg" inkscape:version="0.92.1 r15371" sodipodi:docname="tour-control.svg"
	 xmlns="http://www.w3.org/2000/svg" xmlns:xlink="http://www.w3.org/1999/xlink" x="0px" y="0px" width="247px" height="247px"
	 viewBox="0 0 247 247" enable-background="new 0 0 247 247" xml:space="preserve">
<sodipodi:namedview  id="namedview48" pagecolor="#ffffff" inkscape:cx="123.5" showgrid="false" bordercolor="#666666" guidetolerance="10" gridtolerance="10" borderopacity="1" objecttolerance="10" inkscape:cy="123.5" inkscape:zoom="3.2105263" inkscape:window-x="0" inkscape:window-maximized="1" inkscape:current-layer="svg46" inkscape:window-width="1920" inkscape:pageopacity="0" inkscape:pageshadow="2" inkscape:window-y="27" inkscape:window-height="1015">
	</sodipodi:namedview>
<title  id="title2">tour-control</title>
<desc  id="desc4">Created with Sketch.</desc>
<linearGradient id="Oval-2_1_" gradientUnits="userSpaceOnUse" x1="221" y1="27" x2="221" y2="-193.9844" gradientTransform="matrix(1 0 0 -1 -97.5 27)">
	<stop  offset="0" style="stop-color:#192C3A"/>
	<stop  offset="1" style="stop-color:#192C3A"/>
</linearGradient>
<path id="Oval-2" inkscape:connector-curvature="0" fill="url(#Oval-2_1_)" fill-opacity="0" d="M123.5,247
	c68.207,0,123.5-55.293,123.5-123.5S191.707,0,123.5,0S0,55.293,0,123.5S55.293,247,123.5,247z"/>
<path id="Combined-Shape" fill="#8B8B8B" stroke="#4D5154" stroke-width="2" d="M71,24h83.831c4.418,0,8,3.582,8,8v167.875
	c0,4.418-3.582,8-8,8H71c-4.418,0-8-3.582-8-8V32C63,27.582,66.582,24,71,24z"/>
<path id="Line" inkscape:connector-curvature="0" fill="none" stroke="#4D5154" stroke-width="2" stroke-linecap="square" d="
	M63.52,180.635h98.791"/>
<path id="path16" inkscape:connector-curvature="0" fill="none" stroke="#4D5154" stroke-width="2" stroke-linecap="round" d="
	M104.076,194.255h18.718"/>
<path id="Rectangle-path" fill="#4D5154" stroke="#FFFFFF" stroke-width="4.6" d="M129.005,159.648h66.76c2.209,0,4,1.791,4,4
	v57.721c0,2.209-1.791,4-4,4h-66.76c-2.209,0-4-1.791-4-4v-57.721C125.005,161.439,126.796,159.648,129.005,159.648z"/>
<path id="path36" inkscape:connector-curvature="0" fill="none" stroke="#FFFFFF" stroke-width="4.6" d="M143.695,159.648v-18.778
	c0-10.328,8.41-18.778,18.69-18.778l0,0c10.28,0,18.69,8.45,18.69,18.778v18.778"/>
<path id="path38" inkscape:connector-curvature="0" fill="#F9F9F9" stroke="#FFFFFF" stroke-width="4.4" stroke-linecap="round" d="
	M161.63,187.815v9.389"/>
<path fill="#FFFFFF" d="M113.435,53.953c-14.753,0-26.713,11.96-26.713,26.713s11.96,26.714,26.713,26.714
	s26.713-11.96,26.713-26.713S128.189,53.953,113.435,53.953z M129.351,74.084l-5.632,13.164c-0.521,1.219-1.689,2.216-2.594,2.216
	c-0.905,0-2.05-1.007-2.544-2.237l-4.248-10.593c-0.493-1.23-1.301-1.23-1.794,0l-4.248,10.593c-0.493,1.23-1.638,2.237-2.544,2.237
	s-2.073-0.997-2.594-2.216l-5.632-13.164c-0.521-1.219-0.186-2.216,0.744-2.216c0.931,0,2.097,1.007,2.591,2.237l3.976,9.898
	c0.494,1.23,1.315,1.235,1.824,0.011l4.123-9.92c0.509-1.224,1.742-2.226,2.741-2.226s2.22,1.007,2.714,2.237l3.976,9.898
	c0.494,1.23,1.315,1.235,1.824,0.011l4.123-9.92c0.509-1.224,1.649-2.226,2.534-2.226C129.575,71.868,129.872,72.865,129.351,74.084
	z"/>
</svg>
