<?xml version="1.0" encoding="utf-8"?>
<!-- Generator: Adobe Illustrator 17.0.2, SVG Export Plug-In . SVG Version: 6.00 Build 0)  -->
<!DOCTYPE svg PUBLIC "-//W3C//DTD SVG 1.1//EN" "http://www.w3.org/Graphics/SVG/1.1/DTD/svg11.dtd">
<svg version="1.1" id="Layer_1" xmlns="http://www.w3.org/2000/svg" xmlns:xlink="http://www.w3.org/1999/xlink" x="0px" y="0px"
	 width="377px" height="247px" viewBox="0 0 377 247" enable-background="new 0 0 377 247" xml:space="preserve">
<title>tour-currency</title>
<desc>Created with Sketch.</desc>
<g id="Page-1">
	<g id="tour-currency" transform="translate(-1.000000, 0.000000)">
		
			<linearGradient id="Shape_7_" gradientUnits="userSpaceOnUse" x1="-9.0607" y1="322.7976" x2="-9.0607" y2="321.903" gradientTransform="matrix(247 0 0 -247 2427.5 79731)">
			<stop  offset="0" style="stop-color:#192C3A"/>
			<stop  offset="1" style="stop-color:#192C3A"/>
		</linearGradient>
		<path id="Shape" fill="url(#Shape_7_)" fill-opacity="0" d="M189.5,247c68.2,0,123.5-55.3,123.5-123.5S257.7,0,189.5,0
			S66,55.3,66,123.5S121.3,247,189.5,247z"/>
		
			<linearGradient id="Shape_9_" gradientUnits="userSpaceOnUse" x1="-9.2107" y1="321.02" x2="-9.2107" y2="322.02" gradientTransform="matrix(375 0 0 -150 3643.5 48338)">
			<stop  offset="0" style="stop-color:#192C3A"/>
			<stop  offset="1" style="stop-color:#192C3A"/>
		</linearGradient>
		<polygon id="Shape_1_" opacity="0.3" fill="url(#Shape_9_)" enable-background="new    " points="56.3,127.3 99.7,97.8 
			142.1,119.9 186.6,80.7 224.9,80.7 249.7,47.5 282.8,67.2 323.2,56.1 377,35 377,185 152.1,185 2.4,185 2,133.5 		"/>
		<g id="Group" transform="translate(76.000000, 61.000000)" opacity="0.3">
			<path id="Shape_2_" fill="#FFFFFF" d="M226.2,124h-0.5v-4h0.5V124z M226.2,116h-0.5v-4h0.5V116z M226.2,108h-0.5v-4h0.5V108z
				 M226.2,100h-0.5v-4h0.5V100z M226.2,92h-0.5v-4h0.5V92z M226.2,84h-0.5v-4h0.5V84z M226.2,76h-0.5v-4h0.5V76z M226.2,68h-0.5v-4
				h0.5V68z M226.2,60h-0.5v-4h0.5V60z M226.2,52h-0.5v-4h0.5V52z M226.2,44h-0.5v-4h0.5V44z M226.2,36h-0.5v-4h0.5V36z M226.2,28
				h-0.5v-4h0.5V28z M226.2,20h-0.5v-4h0.5V20z M226.2,12h-0.5V8h0.5V12z M226.2,4h-0.5V0h0.5V4z"/>
			<path id="Shape_3_" fill="#FFFFFF" d="M151.2,124h-0.5v-4h0.5V124z M151.2,116h-0.5v-4h0.5V116z M151.2,108h-0.5v-4h0.5V108z
				 M151.2,100h-0.5v-4h0.5V100z M151.2,92h-0.5v-4h0.5V92z M151.2,84h-0.5v-4h0.5V84z M151.2,76h-0.5v-4h0.5V76z M151.2,68h-0.5v-4
				h0.5V68z M151.2,60h-0.5v-4h0.5V60z M151.2,52h-0.5v-4h0.5V52z M151.2,44h-0.5v-4h0.5V44z M151.2,36h-0.5v-4h0.5V36z M151.2,28
				h-0.5v-4h0.5V28z M151.2,20h-0.5v-3.2h0.5V20z"/>
			<path id="Shape_4_" fill="#FFFFFF" d="M76.2,124h-0.5v-4h0.5V124z M76.2,116h-0.5v-4h0.5V116z M76.2,108h-0.5v-4h0.5V108z
				 M76.2,100h-0.5v-4h0.5V100z M76.2,92h-0.5v-4h0.5V92z M76.2,84h-0.5v-4h0.5V84z M76.2,76h-0.5v-4h0.5V76z M76.2,68h-0.5v-4h0.5
				V68z M76.2,60h-0.5v-4h0.5V60z M76.2,52h-0.5v-2h0.5V52z"/>
			<path id="Shape_5_" fill="#FFFFFF" d="M1.2,124H0.7v-4h0.5V124z M1.2,116H0.7v-4h0.5V116z M1.2,108H0.7v-4h0.5V108z M1.2,100H0.7
				v-4h0.5V100z M1.2,92H0.7v-4h0.5V92z M1.2,84H0.7v-4h0.5V84z M1.2,76H0.7v-4h0.5V76z M1.2,68H0.7v-4h0.5V68z M1.2,60H0.7v-4h0.5
				V60z"/>
		</g>
		<path id="Shape_6_" fill="#FFFFFF" d="M2,134.5c-0.5,0-0.9-0.4-1-0.9s0.3-1,0.9-1.1l54.1-6.2L99.1,97c0.3-0.2,0.7-0.2,1-0.1
			l41.8,21.8l44-38.7c0.2-0.2,0.4-0.2,0.7-0.2h37.8L248.9,47c0.3-0.4,0.9-0.5,1.3-0.3l32.7,19.5l39.9-11l53.8-21.1
			c0.5-0.2,1.1,0.1,1.3,0.6c0.2,0.5-0.1,1.1-0.6,1.3l-53.8,21.1h-0.1L283,68.2c-0.3,0.1-0.5,0-0.8-0.1L250,48.9l-24.3,32.5
			c-0.2,0.3-0.5,0.4-0.8,0.4H187l-44.2,39c-0.3,0.3-0.8,0.3-1.1,0.1L99.8,99l-42.9,29.2c-0.1,0.1-0.3,0.1-0.4,0.2l-54.3,6.2
			C2.1,134.5,2,134.5,2,134.5z"/>
		<g id="Group_1_" transform="translate(185.000000, 38.000000)">
			
				<path id="Line_1_" opacity="0.64" fill="none" stroke="#FF0265" stroke-width="2" stroke-linecap="square" enable-background="new    " d="
				M4.5,0.5v146"/>
			<circle id="dot" fill="#FF0265" stroke="#FFFFFF" stroke-width="3" cx="4.5" cy="41.5" r="4.5"/>
		</g>
	</g>
</g>
</svg>
