<?xml version="1.0" encoding="utf-8"?>
<!-- Generator: Adobe Illustrator 17.0.2, SVG Export Plug-In . SVG Version: 6.00 Build 0)  -->
<!DOCTYPE svg PUBLIC "-//W3C//DTD SVG 1.1//EN" "http://www.w3.org/Graphics/SVG/1.1/DTD/svg11.dtd">
<svg version="1.1" id="Layer_1" xmlns="http://www.w3.org/2000/svg" xmlns:xlink="http://www.w3.org/1999/xlink" x="0px" y="0px"
	 width="247px" height="247px" viewBox="0 0 247 247" enable-background="new 0 0 247 247" xml:space="preserve">
<path fill="#FF0265" d="M129.658,9.734c-43.133,0-78.099,34.966-78.099,78.099s34.966,78.099,78.099,78.099
	c43.133,0,78.099-34.966,78.099-78.099S172.791,9.734,129.658,9.734z M176.187,68.59l-16.465,38.486
	c-1.525,3.564-4.938,6.479-7.585,6.479s-5.994-2.943-7.436-6.541l-12.42-30.971c-1.443-3.597-3.803-3.597-5.246,0l-12.42,30.971
	c-1.443,3.597-4.789,6.541-7.436,6.541s-6.061-2.916-7.585-6.479L83.129,68.59c-1.525-3.564-0.545-6.479,2.176-6.479
	c2.722,0,6.13,2.943,7.575,6.539l11.625,28.939c1.445,3.597,3.844,3.611,5.331,0.032l12.054-29.003
	c1.488-3.579,5.093-6.508,8.013-6.508c2.92,0,6.49,2.943,7.935,6.539l11.625,28.939c1.445,3.597,3.844,3.611,5.331,0.032
	l12.054-29.003c1.488-3.579,4.821-6.508,7.407-6.508C176.843,62.11,177.712,65.026,176.187,68.59z"/>
<title>onboarding-tour-phone</title>
<desc>Created with Sketch.</desc>
<g id="Group_1_" transform="translate(102.000000, 66.000000)">
	<path id="Shape_4_" fill="#FFFFFF" d="M9.458,63.6h-31.8v31.8h31.8V63.6L9.458,63.6z M4.958,90.9h-22.7V68.1h22.7V90.9L4.958,90.9z
		"/>
	<polygon id="Shape_5_" fill="#FFFFFF" points="43.558,154.5 39.058,154.5 39.058,163.6 77.658,163.6 77.658,159.1 43.558,159.1 	
		"/>
	<rect id="Rectangle-path" x="-13.242" y="72.7" fill="#FFFFFF" width="13.6" height="13.6"/>
	<path id="Shape_6_" fill="#FFFFFF" d="M-22.342,163.6h31.8v-31.8h-31.8V163.6L-22.342,163.6z M-17.842,136.3h22.7V159h-22.7V136.3
		L-17.842,136.3z"/>
	<rect id="Rectangle-path_1_" x="-13.242" y="140.9" fill="#FFFFFF" width="13.6" height="13.6"/>
	<path id="Shape_7_" fill="#FFFFFF" d="M45.858,63.6v31.8h31.8V63.6H45.858L45.858,63.6z M73.158,90.9h-22.7V68.1h22.7V90.9
		L73.158,90.9z"/>
	<rect id="Rectangle-path_2_" x="54.958" y="72.7" fill="#FFFFFF" width="13.6" height="13.6"/>
	<rect id="Rectangle-path_3_" x="68.558" y="100" fill="#FFFFFF" width="9.1" height="9.1"/>
	<rect id="Rectangle-path_4_" x="-22.342" y="118.1" fill="#FFFFFF" width="9.1" height="9.1"/>
	<polygon id="Shape_8_" fill="#FFFFFF" points="25.358,100 7.158,100 7.158,104.5 29.958,104.5 29.958,95.4 29.958,90.9 
		34.458,90.9 34.458,81.8 29.958,81.8 25.358,81.8 20.858,81.8 20.858,72.7 25.358,72.7 25.358,77.2 41.258,77.2 41.258,63.6 
		36.758,63.6 36.758,72.7 29.958,72.7 29.958,63.6 27.658,63.6 18.558,63.6 16.258,63.6 16.258,86.3 25.358,86.3 25.358,90.9 
		16.258,90.9 16.258,95.4 25.358,95.4 	"/>
	<polygon id="Shape_9_" fill="#FFFFFF" points="-15.542,113.6 -6.442,113.6 -1.842,113.6 0.358,113.6 0.358,118.1 -8.742,118.1 
		-8.742,122.7 0.358,122.7 0.358,127.2 18.558,127.2 18.558,122.7 4.958,122.7 4.958,118.1 4.958,109.1 -1.842,109.1 -1.842,102.2 
		-6.442,102.2 -6.442,109.1 -10.942,109.1 -10.942,100 -22.342,100 -22.342,104.5 -15.542,104.5 	"/>
	<polygon id="Shape_10_" fill="#FFFFFF" points="27.658,154.5 27.658,143.1 18.558,143.1 18.558,134.1 14.058,134.1 14.058,147.7 
		23.158,147.7 23.158,154.5 14.058,154.5 14.058,159.1 23.158,159.1 23.158,163.6 34.458,163.6 34.458,159.1 27.658,159.1 	"/>
	<polygon id="Shape_11_" fill="#FFFFFF" points="50.358,109.1 41.258,109.1 41.258,97.7 36.758,97.7 36.758,113.6 59.458,113.6 
		59.458,109.1 54.958,109.1 54.958,104.5 61.758,104.5 61.758,100 54.958,100 50.358,100 45.858,100 45.858,104.5 50.358,104.5 	"/>
	<polygon id="Shape_12_" fill="#FFFFFF" points="45.858,150 52.658,150 52.658,154.5 61.758,154.5 61.758,150 61.758,145.4 
		61.758,138.6 52.658,138.6 52.658,145.4 45.858,145.4 45.858,138.6 41.258,138.6 41.258,145.4 36.758,145.4 36.758,127.2 
		32.158,127.2 32.158,122.7 27.658,122.7 27.658,109.1 11.758,109.1 11.758,118.1 16.258,118.1 16.258,113.6 23.158,113.6 
		23.158,122.7 23.158,131.8 32.158,131.8 32.158,145.4 32.158,150 36.758,150 41.258,150 	"/>
	<polygon id="Shape_13_" fill="#FFFFFF" points="73.158,120.4 66.258,120.4 61.758,120.4 50.358,120.4 50.358,129.5 45.858,129.5 
		45.858,120.4 41.258,120.4 41.258,134.1 54.958,134.1 54.958,125 61.758,125 61.758,131.8 66.258,131.8 66.258,125 73.158,125 
		73.158,138.6 66.258,138.6 66.258,152.2 77.658,152.2 77.658,147.7 70.858,147.7 70.858,143.1 77.658,143.1 77.658,125 
		77.658,120.4 77.658,113.6 73.158,113.6 	"/>
</g>
</svg>
