<?xml version="1.0" encoding="utf-8"?>
<!-- Generator: Adobe Illustrator 17.0.2, SVG Export Plug-In . SVG Version: 6.00 Build 0)  -->
<!DOCTYPE svg PUBLIC "-//W3C//DTD SVG 1.1//EN" "http://www.w3.org/Graphics/SVG/1.1/DTD/svg11.dtd">
<svg version="1.1" id="Layer_1" xmlns="http://www.w3.org/2000/svg" xmlns:xlink="http://www.w3.org/1999/xlink" x="0px" y="0px"
	 width="400px" height="400px" viewBox="0 0 400 400" enable-background="new 0 0 400 400" xml:space="preserve">
<path fill="#FFFFFF" d="M200.088,17.44C99.367,17.44,17.717,99.09,17.717,199.812s81.65,182.372,182.371,182.372
	c100.721,0,182.372-81.651,182.372-182.372S300.809,17.44,200.088,17.44z M308.74,164.446l-38.447,89.871
	c-3.56,8.321-11.53,15.13-17.712,15.13s-13.996-6.873-17.365-15.274l-29.003-72.321c-3.369-8.4-8.881-8.4-12.25,0l-29.002,72.321
	c-3.369,8.401-11.183,15.274-17.365,15.274c-6.182,0-14.152-6.809-17.713-15.13l-38.448-89.871c-3.56-8.321-1.273-15.13,5.082-15.13
	c6.355,0,14.315,6.872,17.689,15.27l27.145,67.577c3.374,8.399,8.976,8.432,12.45,0.074l28.147-67.725
	c3.474-8.358,11.894-15.196,18.711-15.196c6.818,0,15.157,6.872,18.53,15.27l27.146,67.577c3.374,8.399,8.976,8.432,12.45,0.074
	l28.147-67.725c3.474-8.358,11.257-15.196,17.297-15.196C310.271,149.316,312.301,156.124,308.74,164.446z"/>
</svg>
