<?xml version="1.0" encoding="utf-8"?>
<!-- Generator: Adobe Illustrator 17.0.2, SVG Export Plug-In . SVG Version: 6.00 Build 0)  -->
<!DOCTYPE svg PUBLIC "-//W3C//DTD SVG 1.1//EN" "http://www.w3.org/Graphics/SVG/1.1/DTD/svg11.dtd">
<svg version="1.1" id="Layer_1" xmlns="http://www.w3.org/2000/svg" xmlns:xlink="http://www.w3.org/1999/xlink" x="0px" y="0px"
	 width="400px" height="400px" viewBox="0 0 400 400" enable-background="new 0 0 400 400" xml:space="preserve">
<path fill="#FFFFFF" d="M200.088,44.44c-85.809,0-155.371,69.562-155.371,155.372s69.562,155.372,155.371,155.372
	c85.81,0,155.372-69.562,155.372-155.372S285.897,44.44,200.088,44.44z M292.654,169.682l-32.755,76.565
	c-3.033,7.089-9.823,12.89-15.09,12.89s-11.924-5.856-14.794-13.013l-24.709-61.614c-2.87-7.157-7.566-7.157-10.437,0
	l-24.708,61.614c-2.87,7.157-9.527,13.013-14.794,13.013s-12.057-5.801-15.09-12.89l-32.756-76.566
	c-3.033-7.089-1.084-12.89,4.33-12.89s12.196,5.854,15.07,13.009l23.126,57.572c2.875,7.155,7.647,7.184,10.607,0.063l23.98-57.698
	c2.959-7.121,10.133-12.946,15.941-12.946c5.809,0,12.913,5.854,15.787,13.009l23.127,57.572c2.875,7.155,7.647,7.184,10.607,0.063
	l23.98-57.698c2.959-7.121,9.59-12.946,14.736-12.946C293.958,156.792,295.688,162.592,292.654,169.682z"/>
</svg>
