<?xml version="1.0" encoding="utf-8"?>
<!-- Generator: Adobe Illustrator 17.0.2, SVG Export Plug-In . SVG Version: 6.00 Build 0)  -->
<!DOCTYPE svg PUBLIC "-//W3C//DTD SVG 1.1//EN" "http://www.w3.org/Graphics/SVG/1.1/DTD/svg11.dtd">
<svg version="1.1"
	 id="Settings" xmlns:dc="http://purl.org/dc/elements/1.1/" xmlns:cc="http://creativecommons.org/ns#" xmlns:inkscape="http://www.inkscape.org/namespaces/inkscape" xmlns:rdf="http://www.w3.org/1999/02/22-rdf-syntax-ns#" xmlns:sodipodi="http://sodipodi.sourceforge.net/DTD/sodipodi-0.dtd" xmlns:svg="http://www.w3.org/2000/svg" inkscape:version="0.92.1 r15371" sodipodi:docname="ico-settings-selected.svg"
	 xmlns="http://www.w3.org/2000/svg" xmlns:xlink="http://www.w3.org/1999/xlink" x="0px" y="0px" width="385.72px"
	 height="307.641px" viewBox="0 0 385.72 307.641" enable-background="new 0 0 385.72 307.641" xml:space="preserve">
<g>
	<path fill="#009688" d="M325.358,58.484H60.363c-4.747,0-8.6-3.853-8.6-8.6s3.853-8.6,8.6-8.6h264.995c4.747,0,8.6,3.853,8.6,8.6
		S330.117,58.484,325.358,58.484z"/>
	<path fill="#009688" d="M325.358,162.42H60.363c-4.747,0-8.6-3.853-8.6-8.6c0-4.747,3.853-8.6,8.6-8.6h264.995
		c4.747,0,8.6,3.853,8.6,8.6C333.957,158.567,330.117,162.42,325.358,162.42z"/>
	<path fill="#009688" d="M325.358,266.357H60.363c-4.747,0-8.6-3.853-8.6-8.6s3.853-8.6,8.6-8.6h264.995c4.747,0,8.6,3.853,8.6,8.6
		S330.117,266.357,325.358,266.357z"/>
</g>
</svg>
