<?xml version="1.0" encoding="utf-8"?>
<!-- Generator: Adobe Illustrator 17.0.2, SVG Export Plug-In . SVG Version: 6.00 Build 0)  -->
<!DOCTYPE svg PUBLIC "-//W3C//DTD SVG 1.1//EN" "http://www.w3.org/Graphics/SVG/1.1/DTD/svg11.dtd">
<svg version="1.1"
	 id="Settings" xmlns:dc="http://purl.org/dc/elements/1.1/" xmlns:cc="http://creativecommons.org/ns#" xmlns:inkscape="http://www.inkscape.org/namespaces/inkscape" xmlns:rdf="http://www.w3.org/1999/02/22-rdf-syntax-ns#" xmlns:sodipodi="http://sodipodi.sourceforge.net/DTD/sodipodi-0.dtd" xmlns:svg="http://www.w3.org/2000/svg" inkscape:version="0.92.1 r15371" sodipodi:docname="ico-settings-selected.svg"
	 xmlns="http://www.w3.org/2000/svg" xmlns:xlink="http://www.w3.org/1999/xlink" x="0px" y="0px" width="385.72px"
	 height="307.641px" viewBox="0 0 385.72 307.641" enable-background="new 0 0 385.72 307.641" xml:space="preserve">
<g>
	<path fill="#FF0265" d="M109.672,57.821H55.824c-4.744,0-8.594-3.85-8.594-8.594s3.85-8.594,8.594-8.594h53.848
		c4.744,0,8.594,3.85,8.594,8.594S114.416,57.821,109.672,57.821z"/>
	<path fill="#FF0265" d="M140.446,88.595c-21.707,0-39.368-17.66-39.368-39.368S118.739,9.86,140.446,9.86
		s39.368,17.66,39.368,39.368S162.154,88.595,140.446,88.595z M140.446,27.047c-12.233,0-22.18,9.947-22.18,22.18
		s9.947,22.18,22.18,22.18c12.233,0,22.18-9.947,22.18-22.18S152.679,27.047,140.446,27.047z"/>
	<path fill="#FF0265" d="M330.846,57.821H202.388c-4.744,0-8.594-3.85-8.594-8.594s3.85-8.594,8.594-8.594h128.458
		c4.744,0,8.594,3.85,8.594,8.594S335.603,57.821,330.846,57.821z"/>
	<path fill="#FF0265" d="M255.842,192.455c-21.707,0-39.368-17.66-39.368-39.368s17.66-39.368,39.368-39.368
		s39.368,17.66,39.368,39.368S277.55,192.455,255.842,192.455z M255.842,130.92c-12.233,0-22.18,9.947-22.18,22.18
		c0,12.233,9.947,22.18,22.18,22.18c12.233,0,22.18-9.947,22.18-22.18C278.023,140.867,268.076,130.92,255.842,130.92z"/>
	<path fill="#FF0265" d="M193.9,161.681H55.824c-4.744,0-8.594-3.85-8.594-8.594s3.85-8.594,8.594-8.594H193.9
		c4.744,0,8.594,3.85,8.594,8.594S198.644,161.681,193.9,161.681z"/>
	<path fill="#FF0265" d="M330.846,161.681h-44.23c-4.744,0-8.594-3.85-8.594-8.594s3.85-8.594,8.594-8.594h44.23
		c4.744,0,8.594,3.85,8.594,8.594S335.603,161.681,330.846,161.681z"/>
	<path fill="#FF0265" d="M130.828,296.314c-21.707,0-39.368-17.66-39.368-39.368s17.66-39.368,39.368-39.368
		s39.368,17.66,39.368,39.368C170.195,278.654,152.535,296.314,130.828,296.314z M130.828,234.766
		c-12.233,0-22.18,9.947-22.18,22.18s9.947,22.18,22.18,22.18c12.233,0,22.18-9.947,22.18-22.18
		C153.008,244.713,143.061,234.766,130.828,234.766z"/>
	<path fill="#FF0265" d="M330.846,265.54H192.783c-4.744,0-8.594-3.85-8.594-8.594c0-4.744,3.85-8.594,8.594-8.594h138.076
		c4.744,0,8.594,3.85,8.594,8.594C339.453,261.69,335.603,265.54,330.846,265.54z"/>
	<path fill="#FF0265" d="M100.053,265.54h-44.23c-4.744,0-8.594-3.85-8.594-8.594c0-4.744,3.85-8.594,8.594-8.594h44.23
		c4.744,0,8.594,3.85,8.594,8.594C108.647,261.69,104.81,265.54,100.053,265.54z"/>
</g>
</svg>
