<?xml version="1.0" encoding="utf-8"?>
<!-- Generator: Adobe Illustrator 17.0.2, SVG Export Plug-In . SVG Version: 6.00 Build 0)  -->
<!DOCTYPE svg PUBLIC "-//W3C//DTD SVG 1.1//EN" "http://www.w3.org/Graphics/SVG/1.1/DTD/svg11.dtd">
<svg version="1.1"
	 id="QR_Icon" xmlns:dc="http://purl.org/dc/elements/1.1/" xmlns:cc="http://creativecommons.org/ns#" xmlns:inkscape="http://www.inkscape.org/namespaces/inkscape" xmlns:rdf="http://www.w3.org/1999/02/22-rdf-syntax-ns#" xmlns:sodipodi="http://sodipodi.sourceforge.net/DTD/sodipodi-0.dtd" xmlns:svg="http://www.w3.org/2000/svg" inkscape:version="0.92.1 r15371" sodipodi:docname="ico-receive.svg"
	 xmlns="http://www.w3.org/2000/svg" xmlns:xlink="http://www.w3.org/1999/xlink" x="0px" y="0px" width="400px" height="400px"
	 viewBox="0 0 400 400" enable-background="new 0 0 400 400" xml:space="preserve">
<sodipodi:namedview  id="namedview21" pagecolor="#ffffff" inkscape:cx="9.3590309" showgrid="false" bordercolor="#666666" guidetolerance="10" gridtolerance="10" borderopacity="1" objecttolerance="10" inkscape:cy="10.542241" inkscape:zoom="27.402967" inkscape:window-x="0" inkscape:window-maximized="1" inkscape:current-layer="QR_Icon" inkscape:window-width="1920" inkscape:pageopacity="0" inkscape:pageshadow="2" inkscape:window-y="27" inkscape:window-height="1015">
	</sodipodi:namedview>
<path fill="#FF0265" d="M200.479,9.783C95.149,9.783,9.783,95.167,9.783,200.479s85.366,190.696,190.696,190.696
	s190.696-85.366,190.696-190.696S305.809,9.783,200.479,9.783z M228.184,101.224h59.234c3.111,0,5.636,2.525,5.636,5.636v59.234
	c0,3.111-2.525,5.636-5.636,5.636c-3.111,0-5.636-2.525-5.636-5.636v-53.598h-53.598c-3.111,0-5.636-2.525-5.636-5.636
	C222.548,103.75,225.073,101.224,228.184,101.224z M107.904,106.86c0-3.111,2.525-5.636,5.636-5.636h59.234
	c3.111,0,5.636,2.525,5.636,5.636c0,3.111-2.525,5.636-5.636,5.636h-53.598v53.598c0,3.111-2.525,5.636-5.636,5.636
	c-3.111,0-5.636-2.525-5.636-5.636V106.86z M172.774,299.734H113.54c-3.111,0-5.636-2.525-5.636-5.636v-59.234
	c0-3.111,2.525-5.636,5.636-5.636c3.111,0,5.636,2.525,5.636,5.636v53.598h53.598c3.111,0,5.636,2.525,5.636,5.636
	C178.41,297.208,175.885,299.734,172.774,299.734z M293.054,294.098c0,3.111-2.525,5.636-5.636,5.636h-59.234
	c-3.111,0-5.636-2.525-5.636-5.636c0-3.111,2.525-5.636,5.636-5.636h53.598v-53.598c0-3.111,2.525-5.636,5.636-5.636
	c3.111,0,5.636,2.525,5.636,5.636V294.098z M310.292,208.366H89.934c-2.91,0-5.819-3.385-5.819-7.887
	c0-3.385,2.196-7.887,5.819-7.887h221.091c2.91,0,5.819,3.385,5.819,7.887C316.111,203.864,313.934,208.366,310.292,208.366z"/>
</svg>
