<?xml version="1.0" encoding="utf-8"?>
<!-- Generator: Adobe Illustrator 17.0.2, SVG Export Plug-In . SVG Version: 6.00 Build 0)  -->
<!DOCTYPE svg PUBLIC "-//W3C//DTD SVG 1.1//EN" "http://www.w3.org/Graphics/SVG/1.1/DTD/svg11.dtd">
<svg version="1.1" id="Layer_1" xmlns="http://www.w3.org/2000/svg" xmlns:xlink="http://www.w3.org/1999/xlink" x="0px" y="0px"
	 width="400px" height="400px" viewBox="0 0 400 400" enable-background="new 0 0 400 400" xml:space="preserve">
<path fill="#FF0265" d="M199.558,3.953C91.469,3.953,3.845,91.577,3.845,199.666S91.469,395.38,199.558,395.38
	s195.713-87.624,195.713-195.713S307.648,3.953,199.558,3.953z M316.159,151.444l-41.26,96.445
	c-3.82,8.93-12.374,16.237-19.008,16.237s-15.02-7.376-18.635-16.391l-31.124-77.612c-3.615-9.015-9.531-9.015-13.146,0
	l-31.123,77.612c-3.615,9.015-12.001,16.391-18.635,16.391s-15.188-7.306-19.008-16.237l-41.261-96.446
	c-3.82-8.93-1.366-16.237,5.454-16.237c6.82,0,15.362,7.374,18.983,16.387l29.132,72.52c3.621,9.013,9.633,9.049,13.361,0.08
	l30.206-72.679c3.728-8.969,12.764-16.308,20.08-16.308c7.316,0,16.265,7.374,19.885,16.387l29.132,72.52
	c3.621,9.013,9.633,9.049,13.361,0.08l30.206-72.679c3.728-8.969,12.081-16.308,18.563-16.308S319.98,142.513,316.159,151.444z"/>
</svg>
