<?xml version="1.0" encoding="utf-8"?>
<!-- Generator: Adobe Illustrator 17.0.2, SVG Export Plug-In . SVG Version: 6.00 Build 0)  -->
<!DOCTYPE svg PUBLIC "-//W3C//DTD SVG 1.1//EN" "http://www.w3.org/Graphics/SVG/1.1/DTD/svg11.dtd">
<svg version="1.1" id="Layer_1" xmlns="http://www.w3.org/2000/svg" xmlns:xlink="http://www.w3.org/1999/xlink" x="0px" y="0px"
	 width="814px" height="140px" viewBox="0 0 814 140" enable-background="new 0 0 814 140" xml:space="preserve">
<g>
	<g>
		<path fill="#FF0265" d="M286.923,10.101c-6.32,0-15.034,8.212-19.364,18.25l-36.796,85.299c-4.33,10.037-2.82,18.25,3.355,18.25
			c6.175,0,14.589-8.288,18.697-18.418l26.751-65.959c4.108-10.13,10.734-10.091,14.724,0.086l25.788,65.787
			c3.99,10.177,12.57,18.504,19.067,18.504c6.497,0,8.27-8.212,3.94-18.25l-36.797-85.299
			C301.957,18.313,293.244,10.101,286.923,10.101z"/>
	</g>
	<g>
		<path fill="#FF0265" d="M120.389,10.101c-6.97,0-16.105,8.259-20.301,18.353L73.654,92.059
			c-4.195,10.094-10.962,10.054-15.037-0.09L33.139,28.544C29.064,18.4,20.415,10.101,13.917,10.101s-8.27,8.212-3.94,18.25
			l36.797,85.299c4.33,10.037,13.044,18.25,19.364,18.25s14.82-8.301,18.889-18.447l27.379-68.275
			c4.069-10.146,10.727-10.146,14.795,0l27.38,68.275c4.069,10.146,12.569,18.447,18.889,18.447c6.32,0,15.034-8.212,19.364-18.25
			l36.796-85.299c4.33-10.037,2.82-18.25-3.355-18.25c-6.175,0-14.66,8.259-18.855,18.353l-26.435,63.604
			c-4.195,10.094-10.962,10.054-15.037-0.09l-25.478-63.425C136.396,18.4,127.36,10.101,120.389,10.101z"/>
	</g>
	<g>
		<path fill="#FF0265" d="M391.742,29.976c0-10.931-4.894-19.875-10.875-19.875s-10.875,8.944-10.875,19.875v82.048
			c0,10.931,8.944,19.875,19.875,19.875h43.986c10.931,0,19.875-3.915,19.875-8.7s-8.944-8.7-19.875-8.7h-22.236
			c-10.931,0-19.875-8.944-19.875-19.875V29.976z"/>
	</g>
	<g>
		<path fill="#FF0265" d="M563.352,114.499c-1.366,0-11.428,0-22.36,0h-24.976c-10.931,0-19.875-8.944-19.875-19.875V29.976
			c0-10.931-4.894-19.875-10.875-19.875s-10.875,8.944-10.875,19.875v82.048c0,10.931,8.944,19.875,19.875,19.875h46.726
			c10.931,0,20.993,0,22.36,0c1.366,0,11.428,0,22.36,0h66.726c10.931,0,19.875-3.915,19.875-8.7s-8.944-8.7-19.875-8.7h-66.726
			C574.78,114.499,564.718,114.499,563.352,114.499z"/>
	</g>
	<g>
		<path fill="#FF0265" d="M664.7,71c0-4.785-8.944-8.7-19.875-8.7h-63.56c-10.932,0-19.875,3.915-19.875,8.7s8.944,8.7,19.875,8.7
			h63.56C655.757,79.7,664.7,75.785,664.7,71z"/>
	</g>
	<g>
		<path fill="#FF0265" d="M739.746,10.101c-10.932,0-23.788,0-28.571,0s-17.639,0-28.571,0H581.265
			c-10.932,0-19.875,3.915-19.875,8.7s8.944,8.7,19.875,8.7h101.339c10.931,0,23.788,0,28.571,0s13.165,0,18.629,0
			c5.463,0,9.933,8.944,9.933,19.875v64.648c0,10.931,5.138,19.875,11.419,19.875c6.28,0,11.419-8.944,11.419-19.875V47.376
			c0-10.931,8.944-19.875,19.875-19.875h4.836c10.931,0,19.875-3.915,19.875-8.7s-8.944-8.7-19.875-8.7H739.746z"/>
	</g>
</g>
</svg>
